<?xml version="1.0" encoding="utf-8"?><!-- Uploaded to: SVG Repo, www.svgrepo.com, Generator: SVG Repo Mixer Tools -->
<svg width="800px" height="800px" viewBox="0 -0.5 25 25" fill="none" xmlns="http://www.w3.org/2000/svg">
<path fill-rule="evenodd" clip-rule="evenodd" d="M15.5 8C15.5 9.65685 14.1569 11 12.5 11C10.8431 11 9.5 9.65685 9.5 8C9.5 6.34315 10.8431 5 12.5 5C13.2956 5 14.0587 5.31607 14.6213 5.87868C15.1839 6.44129 15.5 7.20435 15.5 8Z" stroke="#000000" stroke-width="1.5" stroke-linecap="round" stroke-linejoin="round"/>
<path fill-rule="evenodd" clip-rule="evenodd" d="M16 14H9C7.61929 14 6.5 15.1193 6.5 16.5C6.5 17.8807 7.61929 19 9 19H16C17.3807 19 18.5 17.8807 18.5 16.5C18.5 15.1193 17.3807 14 16 14V14Z" stroke="#000000" stroke-width="1.5" stroke-linecap="round" stroke-linejoin="round"/>
</svg>